<!-- Created with Inkscape (http://www.inkscape.org/) --><svg xmlns:inkscape="http://www.inkscape.org/namespaces/inkscape" xmlns:sodipodi="http://sodipodi.sourceforge.net/DTD/sodipodi-0.dtd" xmlns="http://www.w3.org/2000/svg" xmlns:svg="http://www.w3.org/2000/svg" inkscape:export-ydpi="96" inkscape:export-xdpi="96" inkscape:export-filename="ThumbPinkyUp.png" sodipodi:docname="families.svg" inkscape:version="1.2.2 (732a01da63, 2022-12-09)" xml:space="preserve" id="svg5" version="1.1" viewBox="0 0 155 195" height="195mm" width="155mm"><sodipodi:namedview id="namedview7" pagecolor="#ffffff" bordercolor="#eeeeee" borderopacity="1" inkscape:showpageshadow="0" inkscape:pageopacity="1" inkscape:pagecheckerboard="false" inkscape:deskcolor="#505050" inkscape:document-units="mm" showgrid="false" inkscape:zoom="2.0000001" inkscape:cx="346.74998" inkscape:cy="157.74999" inkscape:window-width="1440" inkscape:window-height="890" inkscape:window-x="214" inkscape:window-y="1073" inkscape:window-maximized="1" inkscape:current-layer="layer2" showguides="false" inkscape:pageshadow="2"><inkscape:grid type="xygrid" id="grid515" originx="0" originy="0"/><sodipodi:guide position="160.66239,33.168301" orientation="0,-1" id="guide1784" inkscape:locked="false"/></sodipodi:namedview><defs id="defs2"><inkscape:path-effect effect="bounding_box" id="path-effect6782" is_visible="true" lpeversion="1" linkedpath="" visualbounds="false"/><inkscape:path-effect effect="skeletal" id="path-effect6561" is_visible="true" lpeversion="1" pattern="m 96.500005,38.5 3,3.000002 L 96.5,44.500001" copytype="repeated_stretched" prop_scale="1" scale_y_rel="false" spacing="4" normal_offset="0" tang_offset="0" prop_units="false" vertical_pattern="false" hide_knot="false" fuse_tolerance="0"/><inkscape:path-effect effect="skeletal" id="path-effect6050" is_visible="true" lpeversion="1" pattern="#path6048" copytype="repeated" prop_scale="1" scale_y_rel="false" spacing="0" normal_offset="0" tang_offset="0" prop_units="false" vertical_pattern="false" hide_knot="false" fuse_tolerance="0"/><marker style="overflow:visible" id="TriangleStart" refX="0" refY="0" orient="auto-start-reverse" inkscape:stockid="TriangleStart" markerWidth="3.5" markerHeight="3.5" viewBox="0 0 5.3244086 6.1553856" inkscape:isstock="true" inkscape:collect="always" preserveAspectRatio="xMidYMid" markerUnits="strokeWidth"><path style="fill:context-stroke;fill-rule:evenodd;stroke:context-stroke;stroke-width:0.666667" d="M 2.885,0 -1.44,2.5 v -5 z" id="path135"/></marker><filter style="color-interpolation-filters:sRGB" inkscape:label="Fade to Black or White" id="filter2067" x="-0.0036743407" y="-0.0028684288" width="1.0073209" height="1.0035177"><feColorMatrix values="0.5 0 0 0 0.5 0 0.5 0 0 0.5 0 0 0.5 0 0.5 0 0 0 1 0" id="feColorMatrix2065" result="fbSourceGraphic"/><feColorMatrix result="fbSourceGraphicAlpha" in="fbSourceGraphic" values="0 0 0 -1 0 0 0 0 -1 0 0 0 0 -1 0 0 0 0 1 0" id="feColorMatrix2081"/><feColorMatrix id="feColorMatrix2083" values="0.5 0 0 0 0.5 0 0.5 0 0 0.5 0 0 0.5 0 0.5 0 0 0 1 0" in="fbSourceGraphic"/></filter><marker markerWidth="7.7142859" markerHeight="6" refX="2" refY="5.1999998" orient="auto" id="marker9619" viewBox="0 0 15.872391 10.28801" preserveAspectRatio="xMidYMid"><path id="path9617" style="fill:#000000;fill-opacity:1;stroke:none;stroke-width:1.35692;stroke-linecap:square;stroke-dasharray:none;stroke-opacity:1" d="M 5.5922268,5.1422891 0,8.049978 V 2.2345965 Z M 10.728416,10.28801 A 5.1440001,5.1440001 0 0 1 5.5844031,5.1440126 5.1440001,5.1440001 0 0 1 10.728416,0 5.1440001,5.1440001 0 0 1 15.872391,5.1440126 5.1440001,5.1440001 0 0 1 10.728416,10.28801 Z"/></marker><marker markerWidth="7.7142859" markerHeight="6" refX="2" refY="5" orient="auto" id="marker9619-9" viewBox="0 0 15.872391 10.28801" preserveAspectRatio="xMidYMid"><path id="path9617-6" style="fill:#000000;fill-opacity:1;stroke:none;stroke-width:1.35692;stroke-linecap:square;stroke-dasharray:none;stroke-opacity:1" d="M 5.5922268,5.1422891 0,8.049978 V 2.2345965 Z M 10.728416,10.28801 A 5.1440001,5.1440001 0 0 1 5.5844031,5.1440126 5.1440001,5.1440001 0 0 1 10.728416,0 5.1440001,5.1440001 0 0 1 15.872391,5.1440126 5.1440001,5.1440001 0 0 1 10.728416,10.28801 Z"/></marker></defs><path id="path1331" style="display:inline;fill:#ffffff;fill-opacity:1;opacity:1;stroke:#808080;stroke-dasharray:none;stroke-linecap:square;stroke-opacity:1;stroke-width:0.9969985799147628" d="M 27.0299 159.673 C 26.9046 157.255 27.2352 154.497 26.8337 150.998 C 26.4323 147.5 26.8572 142.592 25.6852 134.748 C 24.5133 126.904 24.8688 118.357 25.6368 113.281 C 26.4847 107.678 26.0844 99.6389 25.9414 95.9048 C 25.297 88.2589 24.7676 89.8045 23.2327 82.7912 C 21.087 76.125 20.8333 75.2551 18.8103 68.7425 C 15.6179 58.4651 14.2013 56.9948 11.9712 49.4804 C 10.9887 46.1698 9.53162 42.3176 11.3943 39.5959 C 13.257 36.8741 16.4688 36.7879 18.0643 37.7794 C 19.6598 38.771 24.166 44.3052 25.5272 48.3492 C 26.8884 52.3932 31.555 61.2634 33.772 66.3184 C 37.8559 74.9073 38.9264 82.7558 41.2683 84.8184 M 40.4719 83.8334 C 43.0765 88.0024 41.1468 79.5815 41.1143 77.8977 C 41.0686 75.5296 38.381 62.065 38.1767 57.584 C 37.9723 53.103 38.1608 43.6722 37.4202 38.3381 C 36.6796 33.004 35.5 26.4901 35.666 24.6761 C 35.8319 22.8622 36.0149 18.8962 39.1005 17.9641 C 42.186 17.0321 43.7221 17.6008 44.6762 18.3079 C 45.6304 19.0149 46.8489 20.316 47.6056 24.324 C 48.7519 30.3962 49.289 34.1736 49.8234 36.8484 C 50.3578 39.5231 51.1003 43.0356 51.4114 45.2031 C 51.7226 47.3705 53.3429 53.2426 53.8181 55.4178 C 54.2937 57.5928 54.6901 60.4951 54.9595 62.7579 C 55.1164 65.3949 55.2822 68.2381 55.4445 70.0674 C 55.548 71.2337 56.2773 75.9267 56.7876 79.0386 C 57.3049 82.1931 58.9555 81.787 58.9555 81.787 M 75.637 82.6961 C 75.637 82.6961 78.4795 84.068 79.9316 81.7285 C 81.3837 79.3889 84.2003 74.8907 84.611 73.0709 C 85.0217 71.2512 90.6074 53.5503 91.7573 51.2343 C 92.9073 48.9183 96.6858 34.9395 96.768 33.4506 C 96.8501 31.9618 98.3286 27.3297 100.3 26.5853 C 102.271 25.8409 105.557 26.3372 106.625 28.2396 C 107.693 30.142 108.514 29.9766 108.103 35.1049 C 107.693 40.2332 107.364 44.7825 106.461 51.1516 C 105.557 57.5206 104.161 66.2883 101.943 71.6648 C 99.725 77.0413 98.0822 84.072 96.8501 88.3732 C 95.618 92.6743 94.4201 99.7997 94.4201 101.95 C 94.4201 104.101 94.6325 107.34 94.5501 110.582 C 94.4764 113.483 95.9673 119.828 97.7301 120.636 M 59.2421 81.6798 C 59.2421 81.6798 60.0365 81.3962 60.5049 78.2664 C 61.181 73.7484 61.2269 72.7387 61.2551 69.5 C 61.2825 66.3559 61.9716 61.2735 62.2542 56.3626 C 62.4956 52.1675 64.5284 41.3227 65.0038 35.369 C 65.4792 29.4153 65.7863 20.4972 66.2653 18.1716 C 66.7443 15.846 67.2178 13.6958 69.5019 13.124 C 71.786 12.5522 73.2465 12.3057 74.8375 13.4676 C 76.4285 14.6295 77.849 15.669 78.0213 19.478 C 78.1936 23.287 77.5835 34.4777 77.5345 37.9286 C 77.4854 41.3795 77.9297 52.8469 77.3618 58.4625 C 76.9744 62.2938 76.7166 65.1119 76.0985 69.6373 C 75.6194 73.1449 74.416 77.8953 74.4461 79.3782 C 74.515 82.7743 75.983 83.0518 77.1441 83.0884 M 23.4978 184.488 C 23.4978 184.488 27.2763 171.584 27.5228 170.095 C 27.7692 168.606 27.3585 163.478 27.0299 159.673 M 96.9417 119.994 C 99.3907 122.128 100.899 122.319 104.604 121.16 C 108.232 120.024 112.511 117.681 115.275 114.489 C 118.039 111.297 118.091 110.166 119.81 109.053 C 121.529 107.939 122.272 107.165 124.25 105.73 C 126.227 104.295 130.175 101.468 133.172 100.207 C 136.169 98.9459 140.825 97.5195 142.992 99.1895 C 145.16 100.859 146.732 103.399 144.21 106.235 C 141.688 109.07 138.881 111.932 137.706 114.376 C 136.532 116.82 133.241 121.212 130.65 123.517 C 128.059 125.822 125.908 127.788 123.55 130.814 C 121.192 133.841 118.696 136.181 116.977 139.347 C 115.258 142.513 112.71 146.088 109.739 148.114 C 106.768 150.141 96.1751 154.348 91.3165 158.42 M 93.6052 156.693 C 89.2693 159.946 86.8336 162.147 84.8816 163.269 C 83.176 164.249 81.9858 164.666 80.0023 167.809 C 78.3689 170.397 78.3113 171.993 77.2029 176.71 C 76.275 180.659 75.0061 186.649 74.9171 187.031"/><g inkscape:groupmode="layer" id="layer4" inkscape:label="Families" style="display:inline"><g inkscape:groupmode="layer" id="layer5" inkscape:label="AandB" style="display:inline"><g inkscape:groupmode="layer" id="layer12" inkscape:label="Trajectory" style="display:inline"><g inkscape:groupmode="layer" id="layer2" inkscape:label="Tap" mgrep-family-layer="AandB, trajectory, tap" style="display:none"><path style="display:inline;fill:none;stroke:#000000;stroke-width:1;stroke-linecap:round;stroke-dasharray:none;stroke-opacity:1;marker-end:url(#TriangleStart)" d="M 138.8,92.6254 C 137.72,50.9531 109.738,35.7288 109.738,35.7288" id="path1012" mgrep-path-element="design" inkscape:label="Design"/><circle style="display:inline;fill:#f6e90f;fill-opacity:1;stroke:none;stroke-opacity:1" id="circle4714" cx="130.78668" cy="59.798218" r="2.5" mgrep-path-element="command" inkscape:label="Command" mgrep-command="command"/></g><g inkscape:groupmode="layer" id="layer3" inkscape:label="Swipe" style="display:none" mgrep-family-layer="AandB, trajectory, swipe"><circle style="display:none" id="path11073" cx="101.44061" cy="39.390755" r="8" inkscape:label="TraceEndBound" mgrep-path-element="trace-end-bound"/><circle style="display:none" id="path11075" cx="99.169136" cy="51.31263" r="4" inkscape:label="TraceStartBound" mgrep-path-element="trace-start-bound"/><path id="path11011" style="color:#000000;fill:#000000;stroke-linecap:round;-inkscape-stroke:none" d="m 101.47443,36.517151 a 2.8750948,2.8750948 0 0 0 -2.880446,2.316138 2.8750948,2.8750948 0 0 0 2.259296,3.378088 l -2.198316,2.746602 1.06246,0.210323 c -0.24845,1.264355 -0.65526,3.348435 -0.925,4.803842 -0.54749,0.13254 -0.99036,0.583072 -1.08366,1.173055 -0.12159,0.768906 0.41092,1.520822 1.19528,1.64486 0.78193,0.123657 1.521206,-0.413343 1.644856,-1.195275 0.0902,-0.570327 -0.17225,-1.118068 -0.624246,-1.420586 0.266406,-1.430529 0.673246,-3.515735 0.921906,-4.782137 l 0.99684,0.197404 -0.98651,-3.377571 a 2.8750948,2.8750948 0 0 0 3.37809,-2.261878 2.8750948,2.8750948 0 0 0 -2.26239,-3.378605 2.8750948,2.8750948 0 0 0 -0.49816,-0.05426 z" inkscape:label="Design" mgrep-path-element="design"/><path style="display:none" d="m 99.128004,51.37075 2.312996,-11.98" id="path72594" mgrep-path-element="trace" inkscape:label="Trace"/><circle style="fill:#f6e90f;fill-opacity:1;stroke:none;stroke-width:1;stroke-linecap:square;stroke-dasharray:none;stroke-opacity:1" id="path4705" cx="101.44061" cy="39.390755" r="2.5" mgrep-path-element="end-command" inkscape:label="Command" mgrep-command="command"/></g><g inkscape:groupmode="layer" id="g10475" inkscape:label="Flex" style="display:inline"><g inkscape:groupmode="layer" id="layer34" inkscape:label="FlexUp" mgrep-family-layer="AandB, trajectory, flex, up" style="display:none"><circle style="display:none" id="circle11298-0" cx="110.91827" cy="11.057903" r="5" inkscape:label="TraceEndBound" mgrep-path-element="trace-end-bound"/><circle style="display:none" id="path11075-8" cx="102.64163" cy="14.34401" r="3" inkscape:label="TraceStartBound" mgrep-path-element="trace-start-bound"/><path id="path3419" style="color:#000000;fill:#000000;stroke-linecap:round;-inkscape-stroke:none" inkscape:label="Design" d="M 110.88264 8.1824463 C 110.62262 8.1857963 110.35871 8.2244034 110.09716 8.3023356 C 108.5754 8.7557697 107.70946 10.357107 108.16291 11.878861 C 108.61635 13.400613 110.21717 14.266557 111.73892 13.81311 C 113.26064 13.359664 114.12712 11.758326 113.67368 10.236584 C 113.29818 8.9763925 112.13543 8.166324 110.88264 8.1824463 z M 106.84206 11.575004 L 106.90252 11.789978 C 106.38774 11.899255 104.71126 12.29505 103.22574 13.08964 C 102.99443 12.963916 102.73652 12.907705 102.48057 12.918075 C 102.11258 12.932985 101.74896 13.085971 101.48063 13.376961 C 100.95289 13.949251 100.97858 14.870042 101.56228 15.408362 C 102.14427 15.945019 103.05702 15.908183 103.59368 15.326196 C 103.90434 14.989313 104.02252 14.541472 103.95438 14.120068 C 105.17099 12.985378 106.56902 12.494047 107.0591 12.347567 L 107.12783 12.590963 L 108.10348 11.70988 L 106.84206 11.575004 z " mgrep-path-element="design"/><path style="display:none" d="m 102.64163,14.34401 c 3.15738,-1.930028 6.44643,-2.92557 8.25518,-3.305779" id="path69693" mgrep-path-element="trace" inkscape:label="Trace" sodipodi:nodetypes="cc"/><circle style="display:inline;fill:#f6e90f;fill-opacity:1;stroke:none;stroke-width:1;stroke-linecap:square;stroke-dasharray:none;stroke-opacity:1" id="circle4707" cx="110.91827" cy="11.057903" r="2.5" mgrep-path-element="end-command" inkscape:label="Command" mgrep-command="command"/></g><g inkscape:groupmode="layer" id="layer35" inkscape:label="FlexDown" mgrep-family-layer="AandB, trajectory, flex, down" style="display:none"><circle style="display:none" id="circle11298" cx="94.980507" cy="22.84199" r="8" inkscape:label="TraceEndBound" mgrep-path-element="trace-end-bound"/><circle style="display:none" id="circle11450" cx="102.64163" cy="14.34401" r="3.5" inkscape:label="TraceStartBound" mgrep-path-element="trace-start-bound"/><path id="path3391" style="color:#000000;fill:#000000;stroke-linecap:round;-inkscape-stroke:none" inkscape:label="Design" d="m 102.52346,12.914457 c -0.18718,0.0016 -0.37705,0.04011 -0.55862,0.118856 -0.42915,0.186114 -0.72174,0.558767 -0.82424,0.982369 -1.268619,0.104117 -3.991348,2.010237 -4.645715,2.543514 l -0.792199,-0.349333 0.682128,4.123263 c -1.384394,-0.774832 -3.135464,-0.281673 -3.911905,1.102258 -0.77693,1.384807 -0.284094,3.137038 1.100708,3.913973 1.384802,0.776939 3.137546,0.284094 3.914489,-1.100708 0.776377,-1.383798 0.28489,-3.134628 -1.097607,-3.912423 l 3.924311,-2.091862 -0.781351,-0.344681 c 0.314152,-0.657532 0.961521,-1.704807 2.124931,-2.411223 h 5.2e-4 c 0.40141,0.309368 0.95452,0.398587 1.45056,0.183452 0.71418,-0.309746 1.06374,-1.162309 0.74776,-1.890841 -0.15749,-0.36314 -0.44812,-0.63003 -0.79065,-0.765328 -0.17127,-0.06765 -0.35594,-0.102906 -0.54312,-0.101286 z" mgrep-path-element="design" sodipodi:nodetypes="ssccccssscccccssss"/><path style="display:none" d="m 102.64163,14.34401 c -2.50205,0.642441 -6.055499,3.382459 -7.661125,8.497979" id="path69670" mgrep-path-element="trace" inkscape:label="Trace" sodipodi:nodetypes="cc"/><circle style="display:inline;fill:#f6e90f;fill-opacity:1;stroke:none;stroke-width:1;stroke-linecap:square;stroke-dasharray:none;stroke-opacity:1" id="circle4710" cx="94.980507" cy="22.84199" r="2.5" mgrep-path-element="end-command" inkscape:label="Command" mgrep-command="command"/></g></g><g inkscape:groupmode="layer" id="layer33" inkscape:label="Pattern" style="display:none"><path id="path8540" style="fill:#000000;fill-opacity:1;stroke:none;stroke-width:0.359019;stroke-linecap:square;stroke-dasharray:none;stroke-opacity:1" d="m 140.19776,18.970398 -1.47961,0.769326 v -1.538653 z m 1.35895,1.361472 a 1.3610167,1.3610167 0 0 1 -1.36102,-1.361016 1.3610167,1.3610167 0 0 1 1.36102,-1.36102 1.3610167,1.3610167 0 0 1 1.36101,1.36102 1.3610167,1.3610167 0 0 1 -1.36101,1.361016 z"/></g></g><g inkscape:groupmode="layer" id="g492" inkscape:label="Receiver" style="display:inline"><g inkscape:groupmode="layer" id="layer8" inkscape:label="Tap" mgrep-family-layer="AandB, receiver, tap" style="display:none"><circle style="display:none" id="path11075-4" cx="102.5419" cy="32.203682" r="4" inkscape:label="TraceEndBound" mgrep-path-element="trace-end-bound"/><path id="circle490" style="display:inline;stroke-linecap:round;fill:#000000;fill-opacity:1" d="m 105.44163,32.188732 a 2.9000001,2.9000001 0 0 1 -2.9,2.9 2.9000001,2.9000001 0 0 1 -2.899996,-2.9 2.9000001,2.9000001 0 0 1 2.899996,-2.9 2.9000001,2.9000001 0 0 1 2.9,2.9 z" mgrep-path-element="design" inkscape:label="Design"/><circle style="display:inline;fill:#f6e90f;fill-opacity:1;stroke:none;stroke-opacity:1" id="circle5115" cx="102.5419" cy="32.203682" r="2.5" mgrep-path-element="command" inkscape:label="Command" mgrep-command="end-command"/></g></g><g inkscape:groupmode="layer" id="g494" inkscape:label="Actuator" style="display:inline"><g inkscape:groupmode="layer" id="layer32" inkscape:label="Swipe" mgrep-family-layer="AandB, actuator, swipe" style="display:none"><circle style="display:none" id="path11075-4-1" cx="137.86687" cy="101.57572" r="4" inkscape:label="TraceStartBound" mgrep-path-element="trace-start-bound"/><path id="circle490-5-9" style="display:inline;fill:#000000;fill-opacity:1;stroke-width:0.689202;stroke-linecap:round" d="m 139.93019,101.59786 a 2.0676057,2.0676057 0 0 1 -2.06761,2.0676 2.0676057,2.0676057 0 0 1 -2.0676,-2.0676 2.0676057,2.0676057 0 0 1 2.0676,-2.067604 2.0676057,2.0676057 0 0 1 2.06761,2.067604 z" mgrep-path-element="design" inkscape:label="Design"/></g></g></g><g inkscape:groupmode="layer" id="g2222" inkscape:label="Chv" style="display:none"><g inkscape:groupmode="layer" id="layer31" inkscape:label="Components" style="display:inline"><path style="display:none;fill:none;fill-opacity:1;stroke:#000000;stroke-width:1;stroke-linecap:square;stroke-dasharray:none;stroke-opacity:1" d="m 96.5,38.4999 3,3 -3,3" id="path6048" class="UnoptimicedTransforms"/></g><g inkscape:groupmode="layer" id="g2220" inkscape:label="Trajectory" mgrep-family-layer="Chv,trajectory" style="display:none"><path style="fill:none;stroke:#000000;stroke-width:1;stroke-linecap:square;stroke-dasharray:none;stroke-opacity:1" d="m 136.089,91.0652 c 0.931,-1.1378 1.846,-2.3068 2.74,-3.5083 1.1,1.0159 2.184,2.0666 3.249,3.1484 m -6.741,-7.1569 c 0.843,-1.2066 1.662,-2.4453 2.453,-3.7172 1.182,0.921 2.35,1.8833 3.502,2.8834 m -7.318,-6.5651 c 0.733,-1.2706 1.435,-2.574 2.102,-3.9114 1.259,0.8042 2.509,1.6562 3.745,2.5525 m -7.887,-5.8282 c 0.601,-1.3297 1.164,-2.6929 1.685,-4.0908 1.335,0.6654 2.663,1.3853 3.982,2.1558 m -8.452,-4.9464 c 0.386,-1.1907 0.738,-2.4068 1.054,-3.6491 0.051,-0.2015 0.101,-0.4035 0.15,-0.6062 0.197,0.0704 0.393,0.1419 0.589,0.2147 1.211,0.4489 2.419,0.9426 3.621,1.4786 m -8.986,-3.918 c 0.276,-1.4284 0.499,-2.8864 0.669,-4.3699 1.458,0.3258 2.921,0.71 4.388,1.1558 m -9.403,-2.787 c 0.101,-1.4537 0.15,-2.93 0.146,-4.425 1.487,0.1544 2.986,0.3629 4.494,0.6287 m -9.674,-1.6811 c -0.065,-1.4596 -0.182,-2.9351 -0.35,-4.4221 1.497,-0.0102 3.011,0.0296 4.539,0.1223 m -9.808,-0.6106 c -0.222,-1.4464 -0.495,-2.9016 -0.819,-4.3616 1.486,-0.1676 2.995,-0.2896 4.524,-0.3631" id="path2218" class="UnoptimicedTransforms" mgrep-path-element="design"/></g><g inkscape:groupmode="layer" id="g2212" inkscape:label="Actuator" style="display:inline"/><g inkscape:groupmode="layer" id="g2216" inkscape:label="Receiver" style="display:inline"/></g></g><g id="g11720" inkscape:label="Markers" style="opacity:1;display:inline"><g inkscape:groupmode="layer" id="layer29" inkscape:label="Index"><g id="g13172" inkscape:label="Tap" style="opacity:1;display:inline"><g inkscape:groupmode="layer" id="layer20" inkscape:label="TapTipTrajEnd" mgrep-marker="tap, tip, traj-end" style="display:none"><circle style="display:inline;opacity:1;fill:#f10000;fill-opacity:1;stroke:none;stroke-width:0.487412;stroke-linecap:square;stroke-dasharray:none;stroke-opacity:1" id="circle13114" cx="112.45728" cy="38.218792" r="0.53110468" inkscape:label="TapTipTrajEnd"/></g><g inkscape:groupmode="layer" id="layer21" inkscape:label="TapMiddleTrajEnd" mgrep-marker="tap, middle, traj-end" style="display:none"><circle style="display:inline;opacity:1;fill:#f10000;fill-opacity:1;stroke:none;stroke-width:0.487412;stroke-linecap:square;stroke-dasharray:none;stroke-opacity:1" id="circle13112" cx="108.72357" cy="61.047951" r="0.53110468" inkscape:label="TapCenterTrajEnd"/></g><g inkscape:groupmode="layer" id="layer22" inkscape:label="TapBaseTrajEnd" mgrep-marker="tap, base, traj-end" style="display:none"><circle style="display:inline;opacity:1;fill:#f10000;fill-opacity:1;stroke:none;stroke-width:0.487412;stroke-linecap:square;stroke-dasharray:none;stroke-opacity:1" id="circle13110" cx="102.60107" cy="82.561554" r="0.53110468" inkscape:label="TapBaseTrajEnd"/></g><g inkscape:groupmode="layer" id="layer26" inkscape:label="TapTipReceiver" style="display:none" mgrep-marker="tap, tip, receiver"><circle style="display:inline;opacity:1;fill:#f10000;fill-opacity:1;stroke:none;stroke-width:0.487412;stroke-linecap:square;stroke-dasharray:none;stroke-opacity:1" id="circle13102" cx="102.74782" cy="31.812244" r="0.53110468" inkscape:label="TapTipReceiver"/></g><g inkscape:groupmode="layer" id="layer27" inkscape:label="TapMiddleReceiver" mgrep-marker="tap, middle, receiver" style="display:none"><circle style="display:inline;opacity:1;fill:#f10000;fill-opacity:1;stroke:none;stroke-width:0.487412;stroke-linecap:square;stroke-dasharray:none;stroke-opacity:1" id="circle13100" cx="97.184975" cy="56.772095" r="0.53110468" inkscape:label="TapMiddleReceiver"/></g><g inkscape:groupmode="layer" id="layer28" inkscape:label="TapBaseReceiver" mgrep-marker="tap, base, receiver" style="display:none"><circle style="display:inline;opacity:1;fill:#f10000;fill-opacity:1;stroke:none;stroke-width:0.487412;stroke-linecap:square;stroke-dasharray:none;stroke-opacity:1" id="circle13098" cx="89.878792" cy="81.991119" r="0.53110468" inkscape:label="TapBaseReceiver"/></g></g><g id="g13164" inkscape:label="Swipe" style="opacity:1;display:inline"><g inkscape:groupmode="layer" id="layer15" inkscape:label="SwipeDownTrajEnd" style="display:none" mgrep-marker="swipe, down, traj-end"><circle style="display:inline;opacity:1;fill:#f10000;fill-opacity:1;stroke:none;stroke-width:0.487412;stroke-linecap:square;stroke-dasharray:none;stroke-opacity:1" id="circle1691" cx="92.73999" cy="73.2537" r="0.53110468" inkscape:label="SwipeDownTrajEnd"/></g><g inkscape:groupmode="layer" id="layer16" inkscape:label="SwipeDownTrajStart" mgrep-marker="swipe, down, traj-start" style="display:none"><circle style="display:inline;opacity:1;fill:#f10000;fill-opacity:1;stroke:none;stroke-width:0.487412;stroke-linecap:square;stroke-dasharray:none;stroke-opacity:1" id="circle13122" cx="97.158615" cy="56.786667" r="0.53110468" inkscape:label="SwipeDownTrajStart"/></g><g inkscape:groupmode="layer" id="layer17" inkscape:label="SwipeUpTrajEnd" mgrep-marker="swipe, up, traj-end" style="display:none"><circle style="display:inline;fill:#f10000;fill-opacity:1;stroke:none;stroke-width:0.487412;stroke-linecap:square;stroke-dasharray:none;stroke-opacity:1" id="circle13120-8" cx="101.21738" cy="39.613636" r="0.53110468" inkscape:label="SwipeUpTrajEnd"/></g><g inkscape:groupmode="layer" id="layer18" inkscape:label="SwipeUpTrajStart" mgrep-marker="swipe, up, traj-start" style="display:none"><circle style="display:inline;opacity:1;fill:#f10000;fill-opacity:1;stroke:none;stroke-width:0.487412;stroke-linecap:square;stroke-dasharray:none;stroke-opacity:1" id="circle13118" cx="97.144035" cy="56.776791" r="0.53110468" inkscape:label="SwipeUpTrajStart"/></g></g><g id="g13158" inkscape:label="Flex" style="opacity:1;display:inline"><g inkscape:groupmode="layer" id="layer1" inkscape:label="FlexUpTrajEnd" mgrep-marker="flex, up, traj-end" style="display:none"><circle style="display:inline;opacity:1;fill:#f10000;fill-opacity:1;stroke:none;stroke-width:0.487412;stroke-linecap:square;stroke-dasharray:none;stroke-opacity:1" id="circle503" cx="110.85749" cy="11.178513" inkscape:label="FlexUpTrajEnd" r="0.53110468"/></g><g inkscape:groupmode="layer" id="layer13" inkscape:label="FlexDownTrajEnd" mgrep-marker="flex, down, traj-end" style="display:none"><circle style="display:inline;opacity:1;fill:#f10000;fill-opacity:1;stroke:none;stroke-width:0.487412;stroke-linecap:square;stroke-dasharray:none;stroke-opacity:1" id="circle9133" cx="94.769859" cy="23.023098" r="0.53110468" inkscape:label="FlexDownTrajEnd"/></g><g inkscape:groupmode="layer" id="layer14" inkscape:label="FlexUpTrajStart" mgrep-marker="flex, up, traj-start" style="display:none"><circle style="display:inline;opacity:1;fill:#f10000;fill-opacity:1;stroke:none;stroke-width:0.487412;stroke-linecap:square;stroke-dasharray:none;stroke-opacity:1" id="circle13116" cx="102.64163" cy="14.34401" r="0.53110468" inkscape:label="FlexUpTrajStart"/></g><g inkscape:groupmode="layer" id="g648" inkscape:label="FlexDownTrajStart" mgrep-marker="flex, down, traj-start" style="display:none"><circle style="display:inline;opacity:1;fill:#f10000;fill-opacity:1;stroke:none;stroke-width:0.487412;stroke-linecap:square;stroke-dasharray:none;stroke-opacity:1" id="circle646" cx="102.64163" cy="14.34401" r="0.53110468" inkscape:label="FlexDownTrajStart"/></g></g></g><g inkscape:groupmode="layer" id="layer30" inkscape:label="Thumb"><g inkscape:groupmode="layer" id="layer23" inkscape:label="TapTipTrajStart" style="display:none" mgrep-marker="tap, tip, traj-start"><circle style="display:inline;opacity:1;fill:#f10000;fill-opacity:1;stroke:none;stroke-width:0.487412;stroke-linecap:square;stroke-dasharray:none;stroke-opacity:1" id="circle11718" cx="138.88068" cy="94.119476" r="0.53110468" inkscape:label="TapTipTrajStart"/></g><g inkscape:groupmode="layer" id="layer24" inkscape:label="TapMiddleTrajStart" style="display:none" mgrep-marker="tap, middle, traj-start"><circle style="display:inline;opacity:1;fill:#f10000;fill-opacity:1;stroke:none;stroke-width:0.487412;stroke-linecap:square;stroke-dasharray:none;stroke-opacity:1" id="circle11716" cx="135.0475" cy="95.310875" r="0.53110468" inkscape:label="TapMiddleTrajStart"/></g><g inkscape:groupmode="layer" id="layer25" inkscape:label="TapBaseTrajStart" style="display:none" mgrep-marker="tap, base, traj-start"><circle style="display:inline;opacity:1;fill:#f10000;fill-opacity:1;stroke:none;stroke-width:0.487412;stroke-linecap:square;stroke-dasharray:none;stroke-opacity:1" id="circle11714" cx="131.21432" cy="96.916664" r="0.53110468" inkscape:label="TapBaseTrajStart"/></g><g inkscape:groupmode="layer" id="layer19" inkscape:label="SwipeActuator" style="display:none" mgrep-marker="swipe, up|down, actuator"><circle style="display:inline;opacity:1;fill:#f10000;fill-opacity:1;stroke:none;stroke-width:0.487412;stroke-linecap:square;stroke-dasharray:none;stroke-opacity:1" id="circle386" cx="137.86687" cy="101.57572" r="0.53110468" inkscape:label="SwipeActuator"/></g></g></g><g inkscape:groupmode="layer" inkscape:label="AandB_flex_up_trajectory" mgrep-family-layer="AandB, trajectory, flex, up" style="display:inline" mgrep-microgesture-layer="flex, up"><circle style="display:none" id="circle11298-0" cx="110.87812390942594" cy="11.198261079952472" r="5" inkscape:label="TraceEndBound" mgrep-path-element="trace-end-bound"/><circle style="display:none" id="path11075-8" cx="102.64123355704483" cy="14.344005089435681" r="3" inkscape:label="TraceStartBound" mgrep-path-element="trace-start-bound"/><path id="path3419" style="color:#000000;fill:#000000;stroke-linecap:round;-inkscape-stroke:none" inkscape:label="Design" d="M 110.881,8.32259 C 110.621,8.32253 110.356,8.35766 110.093,8.43215 C 108.565,8.86555 107.678,10.4554 108.112,11.983 C 108.545,13.5105 110.135,14.3975 111.663,13.964 C 113.19,13.5306 114.077,11.9407 113.644,10.4132 C 113.285,9.14818 112.133,8.32291 110.881,8.32259 z M 106.795,11.6618 L 106.854,11.8776 C 106.337,11.9801 104.737,12.3223 103.242,13.0974 C 103.012,12.9686 102.755,12.9091 102.499,12.9161 C 102.131,12.9262 101.765,13.0744 101.493,13.3618 C 100.958,13.9272 100.972,14.8481 101.548,15.3941 C 102.123,15.9383 103.036,15.9135 103.581,15.3386 C 103.895,15.0058 104.02,14.5596 103.956,14.1373 C 105.188,13.0187 106.51,12.5771 107.002,12.4372 L 107.068,12.6815 L 108.055,11.8132 L 106.795,11.6618 z" mgrep-path-element="design"/><path style="display:none" d="m 102.642,14.344 c 3.15101,-1.86974 6.4021,-2.80927 8.21569,-3.1657" id="path69693" mgrep-path-element="trace" inkscape:label="Trace" sodipodi:nodetypes="cc"/><circle style="display:inline;fill:#f6e90f;fill-opacity:1;stroke:none;stroke-width:1;stroke-linecap:square;stroke-dasharray:none;stroke-opacity:1" id="circle4707" cx="110.87812390942594" cy="11.198261079952472" r="2.5" mgrep-path-element="end-command" inkscape:label="Command" mgrep-command="command"/></g><g inkscape:groupmode="layer" inkscape:label="AandB_flex_down_trajectory" mgrep-family-layer="AandB, trajectory, flex, down" style="display:inline" mgrep-microgesture-layer="flex, down"><circle style="display:none" id="circle11298" cx="94.76951798700739" cy="23.023109095606003" r="8" inkscape:label="TraceEndBound" mgrep-path-element="trace-end-bound"/><circle style="display:none" id="circle11450" cx="102.64122105925101" cy="14.344009104816777" r="3.5" inkscape:label="TraceStartBound" mgrep-path-element="trace-start-bound"/><path id="path3391" style="color:#000000;fill:#000000;stroke-linecap:round;-inkscape-stroke:none" inkscape:label="Design" d="m 102.527,12.9141 c -0.187184,0.00103882 -0.377169,0.0389794 -0.558974,0.117181 c -0.429706,0.184827 -0.723412,0.556601 -0.827181,0.979893 c -1.26893,0.100313 -4.1825,2.20239 -4.83845,2.7337 l -0.791148,-0.351706 l 0.669763,4.12529 c -1.38206,-0.778979 -3.1346,-0.291072 -3.9152,1.09053 c -0.781078,1.38247 -0.293498,3.13617 1.08897,3.91725 c 1.38246,0.781087 3.13668,0.293499 3.91777,-1.08897 c 0.780522,-1.38147 0.294286,-3.13376 -1.08588,-3.91569 l 3.93056,-2.08009 l -0.780314,-0.347022 c 0.316122,-0.656587 1.15176,-1.90605 2.31729,-2.60897 l 0.000519998,1.55898E-06 h 0,0 c 0.400481,0.31057 0.953321,0.401447 1.45,0.1878 c 0.715105,-0.307603 1.06722,-1.15912 0.753425,-1.88859 c -0.156401,-0.363611 -0.446229,-0.631371 -0.788352,-0.767695 c -0.171066,-0.0681632 -0.35563,-0.103973 -0.542814,-0.102914 z" mgrep-path-element="design" sodipodi:nodetypes="ssccccssscccccssss"/><path style="display:none" d="m 102.642,14.344 c -2.50396,0.634937 -6.25075,3.56842 -7.8717,8.6791" id="path69670" mgrep-path-element="trace" inkscape:label="Trace" sodipodi:nodetypes="cc"/><circle style="display:inline;fill:#f6e90f;fill-opacity:1;stroke:none;stroke-width:1;stroke-linecap:square;stroke-dasharray:none;stroke-opacity:1" id="circle4710" cx="94.76951798700739" cy="23.023109095606003" r="2.5" mgrep-path-element="end-command" inkscape:label="Command" mgrep-command="command"/></g><g inkscape:groupmode="layer" inkscape:label="AandB_swipe_up_trajectory" style="display:inline" mgrep-family-layer="AandB, trajectory, swipe" mgrep-microgesture-layer="swipe, up"><circle style="display:none" id="path11073" cx="101.21683941257572" cy="39.61351115765546" r="8" inkscape:label="TraceEndBound" mgrep-path-element="trace-end-bound"/><circle style="display:none" id="path11075" cx="97.20697529097785" cy="56.695290666975644" r="4" inkscape:label="TraceStartBound" mgrep-path-element="trace-start-bound"/><path id="path11011" style="color:#000000;fill:#000000;stroke-linecap:round;-inkscape-stroke:none" d="m 101.372,36.7439 a 2.87509,2.87509 0 0,0 -2.97581,2.19227 a 2.87509,2.87509 0 0,0 2.11444,3.4706 l -2.31249,2.65119 l 1.05262,0.25506 c -0.301691,1.25272 -2.03257,8.58435 -2.36361,10.027 c -0.552605,0.109271 -1.01413,0.540674 -1.13229,1.12618 c -0.153994,0.763077 0.346245,1.53684 1.12466,1.69393 c 0.776002,0.15661 1.53733,-0.34865 1.69393,-1.12466 c 0.114235,-0.566003 -0.124819,-1.12435 -0.563619,-1.44572 c 0.326657,-1.41799 2.05762,-8.75073 2.3596,-10.0055 l 0.987601,0.239378 l -0.842809,-3.41626 a 2.87509,2.87509 0 0,0 3.47071,-2.11702 a 2.87509,2.87509 0 0,0 -2.1175,-3.47125 a 2.87509,2.87509 0 0,0 -0.49542,-0.0752759 z" inkscape:label="Design" mgrep-path-element="design"/><path style="display:none" d="m 97.1634,56.7517 l 4.05381,-17.1381" id="path72594" mgrep-path-element="trace" inkscape:label="Trace"/><circle style="fill:#f6e90f;fill-opacity:1;stroke:none;stroke-width:1;stroke-linecap:square;stroke-dasharray:none;stroke-opacity:1" id="path4705" cx="101.21683941257572" cy="39.61351115765546" r="2.5" mgrep-path-element="end-command" inkscape:label="Command" mgrep-command="command"/></g><g inkscape:groupmode="layer" inkscape:label="AandB_swipe_up_actuator" mgrep-family-layer="AandB, actuator, swipe" style="display:inline" mgrep-microgesture-layer="swipe, up"><circle style="display:none" id="path11075-4-1" cx="137.86702999999997" cy="101.57597999999999" r="4" inkscape:label="TraceStartBound" mgrep-path-element="trace-start-bound"/><path id="circle490-5-9" style="display:inline;fill:#000000;fill-opacity:1;stroke-width:0.689202;stroke-linecap:round" d="m 139.934,101.576 a 2.06761,2.06761 0 0,1 -2.06761,2.0676 a 2.06761,2.06761 0 0,1 -2.0676,-2.0676 a 2.06761,2.06761 0 0,1 2.0676,-2.0676 a 2.06761,2.06761 0 0,1 2.06761,2.0676 z" mgrep-path-element="design" inkscape:label="Design"/></g><g inkscape:groupmode="layer" inkscape:label="AandB_swipe_down_trajectory" style="display:inline" mgrep-family-layer="AandB, trajectory, swipe" mgrep-microgesture-layer="swipe, down"><circle style="display:none" id="path11073" cx="92.74053909253314" cy="73.25380161502258" r="8" inkscape:label="TraceEndBound" mgrep-path-element="trace-end-bound"/><circle style="display:none" id="path11075" cx="97.09546359778275" cy="56.863674654317904" r="4" inkscape:label="TraceStartBound" mgrep-path-element="trace-start-bound"/><path id="path11011" style="color:#000000;fill:#000000;stroke-linecap:round;-inkscape-stroke:none" d="m 92.5022,76.1176 a 2.87509,2.87509 0 0,0 3.03841,-2.10466 a 2.87509,2.87509 0 0,0 -2.01245,-3.53072 l 2.38874,-2.5827 l -1.04474,-0.285614 c 0.338053,-1.2434 2.13095,-7.9539 2.50387,-9.38634 c 0.555553,-0.093128 1.02945,-0.510904 1.16462,-1.09272 c 0.176156,-0.758267 -0.301332,-1.54627 -1.07484,-1.72597 c -0.771111,-0.179148 -1.54683,0.303721 -1.72597,1.07484 c -0.130674,0.562435 0.0920147,1.12751 0.521267,1.46152 c -0.367823,1.40787 -2.16083,8.11948 -2.49924,9.36492 l -0.980209,-0.268045 l 0.742939,3.43936 a 2.87509,2.87509 0 0,0 -3.5309,2.01502 a 2.87509,2.87509 0 0,0 2.01549,3.53146 a 2.87509,2.87509 0 0,0 0.493017,0.089675 z" inkscape:label="Design" mgrep-path-element="design"/><path style="display:none" d="m 97.1406,56.8086 l -4.40049,16.4451" id="path72594" mgrep-path-element="trace" inkscape:label="Trace"/><circle style="fill:#f6e90f;fill-opacity:1;stroke:none;stroke-width:1;stroke-linecap:square;stroke-dasharray:none;stroke-opacity:1" id="path4705" cx="92.74053909253314" cy="73.25380161502258" r="2.5" mgrep-path-element="end-command" inkscape:label="Command" mgrep-command="command"/></g><g inkscape:groupmode="layer" inkscape:label="AandB_swipe_down_actuator" mgrep-family-layer="AandB, actuator, swipe" style="display:inline" mgrep-microgesture-layer="swipe, down"><circle style="display:none" id="path11075-4-1" cx="137.86687" cy="101.57572" r="4" inkscape:label="TraceStartBound" mgrep-path-element="trace-start-bound"/><path id="circle490-5-9" style="display:inline;fill:#000000;fill-opacity:1;stroke-width:0.689202;stroke-linecap:round" d="m 139.93019,101.59786 a 2.0676057,2.0676057 0 0 1 -2.06761,2.0676 2.0676057,2.0676057 0 0 1 -2.0676,-2.0676 2.0676057,2.0676057 0 0 1 2.0676,-2.067604 2.0676057,2.0676057 0 0 1 2.06761,2.067604 z" mgrep-path-element="design" inkscape:label="Design"/></g><g inkscape:groupmode="layer" inkscape:label="AandB_tap_tip_trajectory" mgrep-family-layer="AandB, trajectory, tap" style="display:inline" mgrep-microgesture-layer="tap, tip"><path style="display:inline;fill:none;stroke:#000000;stroke-width:1;stroke-linecap:round;stroke-dasharray:none;stroke-opacity:1;marker-end:url(#TriangleStart)" d="M 138.881,94.1195 C 139.073,53.7765 112.457,38.2188 112.457,38.2188" id="path1012" mgrep-path-element="design" inkscape:label="Design"/><circle style="display:inline;fill:#f6e90f;fill-opacity:1;stroke:none;stroke-opacity:1" id="circle4714" cx="132.1037621705468" cy="62.12682099389122" r="2.5" mgrep-path-element="command" inkscape:label="Command" mgrep-command="command"/></g><g inkscape:groupmode="layer" inkscape:label="AandB_tap_tip_receiver" mgrep-family-layer="AandB, receiver, tap" style="display:inline" mgrep-microgesture-layer="tap, tip"><circle style="display:none" id="path11075-4" cx="102.7479" cy="31.812217999999998" r="4" inkscape:label="TraceEndBound" mgrep-path-element="trace-end-bound"/><path id="circle490" style="display:inline;stroke-linecap:round;fill:#000000;fill-opacity:1" d="m 105.648,31.8122 a 2.9,2.9 0 0,1 -2.9,2.9 a 2.9,2.9 0 0,1 -2.9,-2.9 a 2.9,2.9 0 0,1 2.9,-2.9 a 2.9,2.9 0 0,1 2.9,2.9 z" mgrep-path-element="design" inkscape:label="Design"/><circle style="display:inline;fill:#f6e90f;fill-opacity:1;stroke:none;stroke-opacity:1" id="circle5115" cx="102.7479" cy="31.812217999999998" r="2.5" mgrep-path-element="command" inkscape:label="Command" mgrep-command="end-command"/></g><g inkscape:groupmode="layer" inkscape:label="AandB_tap_middle_trajectory" mgrep-family-layer="AandB, trajectory, tap" style="display:inline" mgrep-microgesture-layer="tap, middle"><path style="display:inline;fill:none;stroke:#000000;stroke-width:1;stroke-linecap:round;stroke-dasharray:none;stroke-opacity:1;marker-end:url(#TriangleStart)" d="M 135.048,95.3109 C 129.204,67.7311 108.724,61.048 108.724,61.048" id="path1012" mgrep-path-element="design" inkscape:label="Design"/><circle style="display:inline;fill:#f6e90f;fill-opacity:1;stroke:none;stroke-opacity:1" id="circle4714" cx="125.68137071491613" cy="74.46587465432191" r="2.5" mgrep-path-element="command" inkscape:label="Command" mgrep-command="command"/></g><g inkscape:groupmode="layer" inkscape:label="AandB_tap_middle_receiver" mgrep-family-layer="AandB, receiver, tap" style="display:inline" mgrep-microgesture-layer="tap, middle"><circle style="display:none" id="path11075-4" cx="97.1851" cy="56.772118" r="4" inkscape:label="TraceEndBound" mgrep-path-element="trace-end-bound"/><path id="circle490" style="display:inline;stroke-linecap:round;fill:#000000;fill-opacity:1" d="m 100.085,56.7721 a 2.9,2.9 0 0,1 -2.9,2.9 a 2.9,2.9 0 0,1 -2.9,-2.9 a 2.9,2.9 0 0,1 2.9,-2.9 a 2.9,2.9 0 0,1 2.9,2.9 z" mgrep-path-element="design" inkscape:label="Design"/><circle style="display:inline;fill:#f6e90f;fill-opacity:1;stroke:none;stroke-opacity:1" id="circle5115" cx="97.1851" cy="56.772118" r="2.5" mgrep-path-element="command" inkscape:label="Command" mgrep-command="end-command"/></g><g inkscape:groupmode="layer" inkscape:label="AandB_tap_base_trajectory" mgrep-family-layer="AandB, trajectory, tap" style="display:inline" mgrep-microgesture-layer="tap, base"><path style="display:inline;fill:none;stroke:#000000;stroke-width:1;stroke-linecap:round;stroke-dasharray:none;stroke-opacity:1;marker-end:url(#TriangleStart)" d="M 131.214,96.9167 C 118.417,80.409 102.601,82.5616 102.601,82.5616" id="path1012" mgrep-path-element="design" inkscape:label="Design"/><circle style="display:inline;fill:#f6e90f;fill-opacity:1;stroke:none;stroke-opacity:1" id="circle4714" cx="118.2407323244022" cy="86.03751607174378" r="2.5" mgrep-path-element="command" inkscape:label="Command" mgrep-command="command"/></g><g inkscape:groupmode="layer" inkscape:label="AandB_tap_base_receiver" mgrep-family-layer="AandB, receiver, tap" style="display:inline" mgrep-microgesture-layer="tap, base"><circle style="display:none" id="path11075-4" cx="89.8789" cy="81.991118" r="4" inkscape:label="TraceEndBound" mgrep-path-element="trace-end-bound"/><path id="circle490" style="display:inline;stroke-linecap:round;fill:#000000;fill-opacity:1" d="m 92.7792,81.9911 a 2.9,2.9 0 0,1 -2.9,2.9 a 2.9,2.9 0 0,1 -2.9,-2.9 a 2.9,2.9 0 0,1 2.9,-2.9 a 2.9,2.9 0 0,1 2.9,2.9 z" mgrep-path-element="design" inkscape:label="Design"/><circle style="display:inline;fill:#f6e90f;fill-opacity:1;stroke:none;stroke-opacity:1" id="circle5115" cx="89.8789" cy="81.991118" r="2.5" mgrep-path-element="command" inkscape:label="Command" mgrep-command="end-command"/></g></svg>